<svg id="svg" version="1.1" xmlns="http://www.w3.org/2000/svg" xmlns:xlink="http://www.w3.org/1999/xlink" width="400" height="400" viewBox="0, 0, 400,400"><g id="svgg"><path id="path0" d="M196.200 100.246 C 191.119 101.012,186.311 105.646,184.174 111.838 L 183.086 114.990 183.359 123.395 C 183.509 128.018,183.807 134.770,184.022 138.400 C 184.236 142.030,184.586 157.420,184.798 172.600 C 185.010 187.780,185.373 203.260,185.603 207.000 C 185.834 210.740,186.153 223.447,186.311 235.239 C 186.513 250.234,186.736 256.846,187.054 257.239 C 187.303 257.547,187.633 258.386,187.786 259.102 C 187.939 259.818,188.455 260.876,188.932 261.451 C 190.302 263.103,192.964 265.590,193.369 265.595 C 193.571 265.598,194.061 265.893,194.457 266.252 C 195.446 267.146,204.456 267.209,205.511 266.329 C 205.890 266.013,206.673 265.554,207.251 265.308 C 208.840 264.633,211.675 261.100,212.542 258.717 C 213.238 256.801,213.343 254.837,213.649 238.000 C 213.835 227.770,214.170 215.350,214.394 210.400 C 214.618 205.450,214.977 189.880,215.192 175.800 C 215.407 161.720,215.779 146.150,216.017 141.200 C 216.876 123.403,216.977 113.731,216.317 112.716 C 215.989 112.212,215.593 111.115,215.438 110.278 C 215.283 109.440,214.884 108.450,214.552 108.078 C 214.221 107.705,213.431 106.712,212.796 105.872 C 211.627 104.323,209.844 102.893,207.067 101.279 C 205.516 100.377,199.270 99.784,196.200 100.246 M194.600 295.943 C 189.909 297.707,186.402 300.463,184.763 303.673 C 184.350 304.483,183.829 305.259,183.606 305.396 C 183.383 305.534,183.199 306.132,183.198 306.724 C 183.196 307.316,182.907 308.340,182.556 309.000 C 181.687 310.631,181.687 315.769,182.556 317.400 C 182.907 318.060,183.196 319.067,183.198 319.639 C 183.199 320.210,183.560 321.093,184.000 321.600 C 184.440 322.107,184.801 322.720,184.802 322.961 C 184.807 324.037,190.223 328.877,192.000 329.393 C 192.550 329.553,193.450 329.976,194.000 330.333 C 195.673 331.421,204.493 331.245,206.594 330.082 C 207.471 329.597,208.318 329.200,208.476 329.200 C 210.238 329.200,216.800 321.999,216.800 320.066 C 216.800 319.684,217.179 318.299,217.643 316.986 C 218.586 314.315,218.503 311.303,217.415 308.698 C 217.077 307.888,216.800 306.798,216.800 306.275 C 216.800 305.752,216.440 304.998,216.000 304.600 C 215.560 304.202,215.200 303.679,215.200 303.437 C 215.200 302.285,210.992 298.608,207.600 296.796 C 205.720 295.792,196.593 295.193,194.600 295.943 " stroke="none" fill="#453d4c" fill-rule="evenodd"></path><path id="path1" d="M190.449 30.751 C 190.146 30.949,190.021 31.311,190.172 31.555 C 190.342 31.829,190.092 32.018,189.524 32.046 C 187.503 32.147,185.903 32.720,186.218 33.229 C 186.344 33.433,185.880 33.600,185.186 33.600 C 184.262 33.600,183.869 33.813,183.716 34.400 C 183.601 34.840,183.177 35.200,182.774 35.200 C 182.371 35.200,181.556 35.650,180.962 36.200 C 180.369 36.750,179.729 37.200,179.542 37.200 C 179.354 37.200,179.200 37.464,179.200 37.786 C 179.200 38.108,178.840 38.565,178.400 38.800 C 177.876 39.080,177.600 39.638,177.600 40.414 C 177.600 41.333,177.420 41.600,176.800 41.600 C 176.283 41.600,176.000 41.867,176.000 42.353 C 176.000 42.770,175.643 43.200,175.200 43.316 C 174.611 43.470,174.400 43.862,174.400 44.800 C 174.400 45.738,174.189 46.130,173.600 46.284 C 172.966 46.450,172.800 46.830,172.800 48.113 C 172.800 49.004,172.689 49.622,172.552 49.486 C 172.123 49.057,171.270 50.230,171.132 51.439 C 171.052 52.145,170.765 52.600,170.400 52.600 C 169.798 52.600,169.743 52.748,169.650 54.600 C 169.614 55.317,169.373 55.600,168.800 55.600 C 168.133 55.600,168.000 55.867,168.000 57.200 C 168.000 58.533,167.867 58.800,167.200 58.800 C 166.580 58.800,166.400 59.067,166.400 59.986 C 166.400 60.748,166.124 61.319,165.628 61.585 C 165.203 61.812,164.794 62.404,164.718 62.899 C 164.643 63.395,164.360 63.755,164.091 63.700 C 163.821 63.645,163.621 63.735,163.647 63.900 C 163.673 64.065,163.651 64.335,163.597 64.500 C 163.405 65.093,163.299 65.610,163.250 66.200 C 163.222 66.530,162.930 66.800,162.600 66.800 C 162.173 66.800,162.000 67.234,162.000 68.304 C 162.000 69.374,161.770 69.951,161.200 70.307 C 160.748 70.590,160.400 71.240,160.400 71.803 C 160.400 72.389,160.170 72.800,159.843 72.800 C 159.198 72.800,158.800 73.652,158.800 75.033 C 158.800 75.733,158.579 76.000,158.000 76.000 C 157.337 76.000,157.200 76.267,157.200 77.553 C 157.200 78.770,157.027 79.152,156.400 79.316 C 155.701 79.499,155.358 80.465,155.553 81.700 C 155.579 81.865,155.465 81.979,155.300 81.953 C 154.385 81.808,154.000 82.100,154.000 82.938 C 154.000 83.454,153.640 84.202,153.200 84.600 C 152.760 84.998,152.400 85.590,152.400 85.915 C 152.400 86.240,152.034 86.824,151.586 87.212 C 151.139 87.600,150.800 88.071,150.834 88.259 C 151.005 89.216,150.739 90.000,150.243 90.000 C 149.605 90.000,149.200 90.849,149.200 92.186 C 149.200 92.730,148.911 93.182,148.492 93.292 C 148.059 93.405,147.748 93.916,147.691 94.610 C 147.639 95.233,147.238 96.078,146.799 96.487 C 146.359 96.896,146.000 97.674,146.000 98.216 C 146.000 98.824,145.771 99.200,145.400 99.200 C 144.879 99.200,144.537 100.733,144.753 102.100 C 144.779 102.265,144.665 102.379,144.500 102.353 C 143.619 102.214,143.200 102.482,143.200 103.186 C 143.200 103.618,142.851 104.158,142.425 104.386 C 141.958 104.637,141.601 105.317,141.525 106.101 C 141.445 106.933,141.184 107.400,140.800 107.400 C 140.198 107.400,140.143 107.548,140.050 109.400 C 140.014 110.117,139.773 110.400,139.200 110.400 C 138.533 110.400,138.400 110.667,138.400 112.000 C 138.400 112.880,138.265 113.579,138.100 113.553 C 137.149 113.403,136.835 113.756,136.724 115.100 C 136.640 116.111,136.405 116.600,136.000 116.600 C 135.599 116.600,135.360 117.083,135.278 118.059 C 135.191 119.107,134.937 119.575,134.378 119.722 C 133.860 119.857,133.600 120.271,133.600 120.959 C 133.600 121.560,133.265 122.203,132.800 122.493 C 132.360 122.768,132.000 123.334,132.000 123.752 C 132.000 124.170,131.713 124.722,131.363 124.978 C 131.012 125.234,130.697 125.929,130.663 126.522 C 130.628 127.114,130.394 127.600,130.143 127.600 C 129.614 127.600,129.200 128.510,129.200 129.670 C 129.200 130.138,128.866 130.562,128.400 130.684 C 127.803 130.840,127.600 131.230,127.600 132.220 C 127.600 133.195,127.388 133.613,126.800 133.800 C 126.205 133.989,126.000 134.405,126.000 135.427 C 126.000 136.533,125.845 136.800,125.200 136.800 C 124.533 136.800,124.400 137.067,124.400 138.400 C 124.400 139.733,124.267 140.000,123.600 140.000 C 122.933 140.000,122.800 140.267,122.800 141.600 C 122.800 142.933,122.667 143.200,122.000 143.200 C 121.381 143.200,121.200 143.467,121.200 144.376 C 121.200 145.023,120.992 145.681,120.738 145.838 C 120.425 146.032,120.385 145.943,120.615 145.562 C 120.903 145.083,120.853 145.081,120.277 145.549 C 119.905 145.851,119.600 146.526,119.600 147.049 C 119.600 147.595,119.363 148.000,119.043 148.000 C 118.398 148.000,118.000 148.852,118.000 150.233 C 118.000 150.765,117.790 151.155,117.533 151.100 C 117.276 151.045,116.898 151.675,116.693 152.500 C 116.488 153.325,116.088 154.000,115.803 154.000 C 115.173 154.000,114.800 154.888,114.800 156.388 C 114.800 157.212,114.614 157.496,114.100 157.456 C 113.664 157.421,113.378 157.702,113.343 158.200 C 113.311 158.640,113.266 159.315,113.243 159.700 C 113.219 160.085,112.930 160.400,112.600 160.400 C 112.181 160.400,112.000 160.822,112.000 161.800 C 112.000 162.933,111.848 163.200,111.200 163.200 C 110.465 163.200,110.085 164.531,110.363 166.130 C 110.394 166.311,110.256 166.358,110.055 166.234 C 109.605 165.956,108.942 166.732,108.719 167.800 C 108.628 168.240,108.325 168.551,108.047 168.490 C 107.768 168.430,107.655 168.565,107.794 168.790 C 107.933 169.016,107.869 169.200,107.650 169.200 C 107.432 169.200,107.196 169.695,107.127 170.300 C 107.051 170.955,106.757 171.400,106.400 171.400 C 105.800 171.400,105.744 171.549,105.650 173.373 C 105.619 173.967,105.288 174.445,104.800 174.600 C 104.205 174.789,104.000 175.205,104.000 176.227 C 104.000 177.319,103.841 177.600,103.224 177.600 C 102.627 177.600,102.420 177.924,102.324 179.008 C 102.256 179.783,102.040 180.398,101.845 180.374 C 101.300 180.309,100.813 181.284,100.806 182.453 C 100.802 183.167,100.542 183.574,100.000 183.716 C 99.290 183.901,98.930 185.087,99.153 186.500 C 99.179 186.665,98.975 186.807,98.700 186.815 C 98.113 186.832,96.000 190.031,96.000 190.903 C 96.000 191.232,95.730 191.726,95.400 192.000 C 95.070 192.274,94.800 193.016,94.800 193.649 C 94.800 194.533,94.615 194.800,94.000 194.800 C 93.333 194.800,93.200 195.067,93.200 196.400 C 93.200 197.280,93.065 197.979,92.900 197.953 C 91.899 197.795,91.600 198.128,91.600 199.400 C 91.600 200.533,91.448 200.800,90.800 200.800 C 90.133 200.800,90.000 201.067,90.000 202.400 C 90.000 203.733,89.867 204.000,89.200 204.000 C 88.578 204.000,88.400 204.267,88.400 205.197 C 88.400 205.960,88.110 206.574,87.600 206.893 C 87.160 207.168,86.800 207.715,86.800 208.109 C 86.800 208.503,86.548 208.922,86.239 209.040 C 85.931 209.159,85.563 209.873,85.421 210.628 C 85.279 211.385,84.922 212.000,84.625 212.000 C 84.038 212.000,83.600 212.849,83.600 213.984 C 83.600 214.379,83.329 214.927,82.998 215.201 C 82.668 215.476,82.251 216.263,82.073 216.950 C 81.895 217.638,81.601 218.140,81.419 218.066 C 80.916 217.861,80.413 218.872,80.406 220.100 C 80.402 220.808,80.186 221.200,79.800 221.200 C 79.368 221.200,79.200 221.641,79.200 222.773 C 79.200 223.995,79.021 224.403,78.400 224.600 C 77.832 224.780,77.600 225.205,77.600 226.064 C 77.600 226.916,77.375 227.334,76.843 227.473 C 76.397 227.590,75.988 228.160,75.848 228.862 C 75.694 229.632,75.445 229.951,75.143 229.765 C 74.863 229.592,74.784 229.650,74.945 229.911 C 75.092 230.149,75.030 230.458,74.807 230.596 C 74.583 230.734,74.400 231.176,74.400 231.577 C 74.400 231.978,74.040 232.401,73.600 232.516 C 72.987 232.676,72.800 233.062,72.800 234.163 C 72.800 234.953,72.665 235.579,72.500 235.553 C 71.825 235.446,71.203 235.618,71.247 235.900 C 71.456 237.221,71.102 238.377,70.423 238.593 C 69.873 238.767,69.610 239.272,69.523 240.320 C 69.427 241.472,69.245 241.774,68.700 241.682 C 68.132 241.587,68.000 241.862,68.000 243.136 C 68.000 244.370,67.829 244.751,67.200 244.916 C 66.626 245.066,66.400 245.462,66.400 246.316 C 66.400 247.170,66.174 247.566,65.600 247.716 C 65.059 247.857,64.800 248.262,64.800 248.963 C 64.800 249.533,64.789 250.135,64.776 250.300 C 64.763 250.465,64.391 250.733,63.950 250.897 C 63.509 251.060,63.254 251.364,63.383 251.573 C 63.512 251.782,63.269 252.278,62.844 252.676 C 62.418 253.074,62.009 253.940,61.935 254.600 C 61.852 255.340,61.570 255.800,61.200 255.800 C 60.795 255.800,60.560 256.289,60.476 257.300 C 60.379 258.475,60.184 258.800,59.576 258.800 C 58.937 258.800,58.800 259.083,58.800 260.400 C 58.800 261.717,58.663 262.000,58.024 262.000 C 57.416 262.000,57.221 262.325,57.124 263.500 C 57.040 264.511,56.805 265.000,56.400 265.000 C 55.995 265.000,55.760 265.489,55.676 266.500 C 55.579 267.675,55.384 268.000,54.776 268.000 C 54.184 268.000,54.000 268.279,54.000 269.177 C 54.000 269.864,53.694 270.572,53.265 270.877 C 52.860 271.165,52.405 271.902,52.253 272.516 C 52.083 273.201,51.802 273.525,51.526 273.355 C 51.262 273.191,51.187 273.255,51.345 273.511 C 51.492 273.749,51.430 274.058,51.207 274.196 C 50.983 274.334,50.800 274.723,50.800 275.061 C 50.800 275.398,50.440 276.131,50.000 276.691 C 49.560 277.250,49.200 278.044,49.200 278.454 C 49.200 278.864,48.930 279.200,48.600 279.200 C 48.270 279.200,47.987 279.335,47.970 279.500 C 47.830 280.911,47.480 281.800,46.893 282.229 C 46.203 282.734,46.145 282.882,46.050 284.400 C 46.023 284.840,45.730 285.200,45.400 285.200 C 44.967 285.200,44.800 285.644,44.800 286.800 C 44.800 288.133,44.667 288.400,44.000 288.400 C 43.333 288.400,43.200 288.667,43.200 290.000 C 43.200 291.333,43.067 291.600,42.400 291.600 C 41.778 291.600,41.600 291.867,41.600 292.800 C 41.600 293.547,41.411 293.962,41.100 293.900 C 40.825 293.845,40.645 294.025,40.700 294.300 C 40.755 294.575,40.620 294.800,40.400 294.800 C 40.180 294.800,40.000 295.139,40.000 295.553 C 40.000 295.970,39.643 296.400,39.200 296.516 C 38.591 296.675,38.400 297.062,38.400 298.136 C 38.400 299.190,38.200 299.610,37.608 299.797 C 37.173 299.936,36.834 300.173,36.855 300.324 C 37.020 301.480,36.686 302.337,36.000 302.516 C 35.394 302.675,35.200 303.062,35.200 304.116 C 35.200 305.170,35.006 305.557,34.400 305.716 C 33.794 305.875,33.600 306.262,33.600 307.316 C 33.600 308.370,33.406 308.757,32.800 308.916 C 32.187 309.076,32.000 309.462,32.000 310.563 C 32.000 311.676,31.839 312.000,31.285 312.000 C 30.631 312.000,30.477 312.360,30.309 314.278 C 30.286 314.541,30.082 314.721,29.856 314.678 C 29.629 314.635,29.343 315.140,29.218 315.800 C 29.087 316.495,28.741 317.000,28.396 317.000 C 28.020 317.000,27.755 317.465,27.678 318.259 C 27.595 319.107,27.301 319.585,26.778 319.722 C 26.196 319.874,26.000 320.275,26.000 321.316 C 26.000 322.370,25.806 322.757,25.200 322.916 C 24.594 323.075,24.400 323.462,24.400 324.516 C 24.400 325.570,24.206 325.957,23.600 326.116 C 22.987 326.276,22.800 326.662,22.800 327.763 C 22.800 328.933,22.652 329.200,22.000 329.200 C 21.358 329.200,21.200 329.467,21.200 330.553 C 21.200 331.570,21.001 331.959,20.400 332.116 C 19.794 332.275,19.600 332.662,19.600 333.716 C 19.600 334.770,19.406 335.157,18.800 335.316 C 17.559 335.641,17.559 352.277,18.800 353.400 C 19.240 353.798,19.600 354.630,19.600 355.248 C 19.600 355.962,19.891 356.528,20.400 356.800 C 20.840 357.035,21.200 357.452,21.200 357.726 C 21.200 357.999,21.560 358.483,22.000 358.800 C 22.440 359.117,22.800 359.775,22.800 360.261 C 22.800 360.795,23.118 361.247,23.600 361.400 C 24.040 361.540,24.400 361.883,24.400 362.163 C 24.400 362.443,24.851 362.877,25.402 363.128 C 25.954 363.380,26.359 363.813,26.302 364.093 C 26.237 364.414,26.749 364.645,27.700 364.724 C 28.875 364.821,29.200 365.016,29.200 365.624 C 29.200 366.051,29.470 366.400,29.800 366.400 C 30.130 366.400,30.760 366.760,31.200 367.200 C 31.725 367.725,32.533 368.000,33.553 368.000 C 34.770 368.000,35.152 368.173,35.316 368.800 C 35.525 369.598,35.862 369.600,199.530 369.600 C 363.710 369.600,364.800 369.593,364.800 368.557 C 364.800 368.174,365.299 368.000,366.400 368.000 C 367.467 368.000,368.267 367.733,368.800 367.200 C 369.240 366.760,369.858 366.400,370.173 366.400 C 370.488 366.400,370.860 366.040,371.000 365.600 C 371.180 365.032,371.605 364.800,372.464 364.800 C 373.332 364.800,373.733 364.577,373.881 364.013 C 373.994 363.581,374.427 363.118,374.843 362.986 C 375.259 362.854,375.600 362.488,375.600 362.173 C 375.600 361.858,375.960 361.600,376.400 361.600 C 376.973 361.600,377.214 361.317,377.250 360.600 C 377.326 359.075,377.371 358.893,377.764 358.533 C 377.981 358.335,377.991 358.442,377.787 358.800 C 377.493 359.317,377.540 359.324,378.123 358.851 C 378.495 358.549,378.800 358.066,378.800 357.778 C 378.800 357.490,379.184 357.132,379.653 356.983 C 380.323 356.771,380.387 356.637,379.953 356.362 C 379.554 356.110,379.539 356.011,379.900 356.006 C 380.175 356.003,380.400 355.590,380.400 355.088 C 380.400 354.587,380.747 353.926,381.172 353.620 C 382.403 352.733,382.441 335.794,381.213 335.404 C 380.598 335.209,380.400 334.802,380.400 333.736 C 380.400 332.662,380.209 332.275,379.600 332.116 C 378.999 331.959,378.800 331.570,378.800 330.553 C 378.800 329.467,378.642 329.200,378.000 329.200 C 377.333 329.200,377.200 328.933,377.200 327.600 C 377.200 326.267,377.067 326.000,376.400 326.000 C 375.733 326.000,375.600 325.733,375.600 324.400 C 375.600 323.244,375.433 322.800,375.000 322.800 C 374.660 322.800,374.400 322.442,374.400 321.974 C 374.400 320.854,373.648 319.523,373.180 319.812 C 372.971 319.942,372.800 319.597,372.800 319.047 C 372.800 318.497,372.617 317.934,372.393 317.796 C 372.170 317.658,372.091 317.377,372.217 317.172 C 372.344 316.968,372.193 316.800,371.881 316.800 C 371.570 316.800,371.140 316.215,370.925 315.500 C 370.710 314.785,370.354 314.235,370.134 314.278 C 369.913 314.321,369.703 314.096,369.667 313.778 C 369.630 313.460,369.570 312.930,369.533 312.600 C 369.497 312.270,369.137 312.000,368.733 312.000 C 368.158 312.000,368.000 311.690,368.000 310.563 C 368.000 309.462,367.813 309.076,367.200 308.916 C 366.573 308.752,366.400 308.370,366.400 307.153 C 366.400 305.867,366.263 305.600,365.600 305.600 C 364.948 305.600,364.800 305.333,364.800 304.163 C 364.800 303.062,364.613 302.676,364.000 302.516 C 363.406 302.361,363.200 301.970,363.200 301.000 C 363.200 300.030,362.994 299.639,362.400 299.484 C 361.787 299.324,361.600 298.938,361.600 297.837 C 361.600 296.667,361.452 296.400,360.800 296.400 C 360.178 296.400,360.000 296.133,360.000 295.203 C 360.000 294.440,359.710 293.826,359.200 293.507 C 358.760 293.232,358.400 292.713,358.400 292.353 C 358.400 291.993,358.130 291.474,357.800 291.200 C 357.470 290.926,357.200 290.257,357.200 289.714 C 357.200 289.062,356.928 288.654,356.400 288.516 C 355.699 288.333,355.352 287.280,355.545 285.924 C 355.566 285.773,355.227 285.536,354.792 285.397 C 354.205 285.211,354.000 284.790,354.000 283.773 C 354.000 282.528,353.696 282.195,352.700 282.353 C 352.535 282.379,352.400 281.753,352.400 280.963 C 352.400 279.862,352.213 279.476,351.600 279.316 C 351.160 279.201,350.778 278.768,350.750 278.353 C 350.723 277.939,350.655 277.420,350.600 277.200 C 350.545 276.980,350.478 276.620,350.450 276.400 C 350.423 276.180,350.130 276.000,349.800 276.000 C 349.426 276.000,349.200 275.622,349.200 274.996 C 349.200 274.444,348.840 273.684,348.400 273.307 C 347.960 272.930,347.600 272.302,347.600 271.911 C 347.600 271.273,347.161 271.017,346.300 271.153 C 346.135 271.179,346.021 271.065,346.047 270.900 C 346.270 269.487,345.910 268.301,345.200 268.116 C 344.594 267.957,344.400 267.570,344.400 266.516 C 344.400 265.462,344.206 265.075,343.600 264.916 C 342.999 264.759,342.800 264.370,342.800 263.353 C 342.800 262.417,342.615 262.000,342.200 262.000 C 341.802 262.000,341.600 261.602,341.600 260.814 C 341.600 260.062,341.324 259.481,340.847 259.225 C 340.430 259.002,339.971 258.172,339.820 257.366 C 339.648 256.446,339.280 255.841,338.820 255.721 C 338.346 255.597,338.160 255.275,338.285 254.795 C 338.399 254.359,338.136 253.766,337.639 253.341 C 337.178 252.945,336.800 252.420,336.800 252.173 C 336.800 251.926,336.440 251.398,336.000 251.000 C 335.560 250.602,335.200 249.776,335.200 249.165 C 335.200 248.405,334.947 247.974,334.400 247.800 C 333.832 247.620,333.600 247.195,333.600 246.336 C 333.600 245.462,333.378 245.067,332.800 244.916 C 332.194 244.757,332.000 244.370,332.000 243.316 C 332.000 242.262,331.806 241.875,331.200 241.716 C 330.594 241.557,330.400 241.170,330.400 240.116 C 330.400 239.062,330.206 238.675,329.600 238.516 C 329.058 238.374,328.798 237.967,328.794 237.253 C 328.787 236.046,328.276 235.069,327.755 235.266 C 327.560 235.340,327.344 234.824,327.276 234.119 C 327.194 233.272,326.890 232.755,326.376 232.592 C 325.853 232.427,325.600 231.983,325.600 231.235 C 325.600 230.624,325.252 229.809,324.827 229.424 C 324.402 229.040,324.151 228.472,324.270 228.162 C 324.413 227.789,324.203 227.600,323.643 227.600 C 323.018 227.600,322.800 227.350,322.800 226.633 C 322.800 225.252,322.402 224.400,321.757 224.400 C 321.275 224.400,320.957 223.042,321.164 221.866 C 321.196 221.682,320.858 221.436,320.411 221.319 C 319.792 221.157,319.600 220.777,319.600 219.716 C 319.600 218.662,319.406 218.275,318.800 218.116 C 318.244 217.970,318.000 217.570,318.000 216.802 C 318.000 216.145,317.675 215.475,317.197 215.149 C 316.755 214.847,316.353 214.077,316.304 213.438 C 316.249 212.714,315.949 212.207,315.508 212.092 C 315.080 211.980,314.800 211.529,314.800 210.953 C 314.800 210.429,314.440 209.640,314.000 209.200 C 313.560 208.760,313.200 208.170,313.200 207.888 C 313.200 207.607,312.840 207.117,312.400 206.800 C 311.930 206.461,311.600 205.765,311.600 205.112 C 311.600 204.267,311.408 204.000,310.800 204.000 C 310.133 204.000,310.000 203.733,310.000 202.400 C 310.000 201.083,309.863 200.800,309.224 200.800 C 308.616 200.800,308.421 200.475,308.324 199.300 C 308.247 198.362,308.013 197.837,307.700 197.900 C 307.425 197.955,307.178 197.640,307.150 197.200 C 307.056 195.689,306.998 195.534,306.362 195.068 C 306.012 194.810,305.599 193.925,305.444 193.100 C 305.273 192.183,304.938 191.600,304.582 191.600 C 304.262 191.600,304.000 191.251,304.000 190.824 C 304.000 190.397,303.817 189.934,303.593 189.796 C 303.370 189.658,303.308 189.349,303.455 189.111 C 303.616 188.850,303.537 188.792,303.257 188.965 C 302.955 189.151,302.706 188.832,302.552 188.062 C 302.412 187.360,302.003 186.790,301.557 186.673 C 300.991 186.525,300.800 186.111,300.800 185.037 C 300.800 183.867,300.652 183.600,300.000 183.600 C 299.348 183.600,299.200 183.333,299.200 182.163 C 299.200 181.062,299.013 180.676,298.400 180.516 C 297.960 180.401,297.600 179.982,297.600 179.586 C 297.600 178.438,297.160 177.600,296.557 177.600 C 296.174 177.600,296.000 177.101,296.000 176.000 C 296.000 174.667,295.867 174.400,295.200 174.400 C 294.621 174.400,294.400 174.133,294.400 173.433 C 294.400 172.052,294.002 171.200,293.357 171.200 C 292.881 171.200,292.582 170.151,292.756 169.089 C 292.784 168.918,292.536 168.673,292.204 168.546 C 291.872 168.419,291.600 167.996,291.600 167.606 C 291.600 166.773,290.657 165.876,290.230 166.303 C 290.067 166.467,289.970 166.420,290.014 166.200 C 290.297 164.799,289.932 163.507,289.200 163.316 C 288.760 163.201,288.400 162.782,288.400 162.386 C 288.400 161.238,287.960 160.400,287.357 160.400 C 286.984 160.400,286.800 159.925,286.800 158.963 C 286.800 157.862,286.613 157.476,286.000 157.316 C 285.394 157.157,285.200 156.770,285.200 155.716 C 285.200 154.662,285.006 154.275,284.400 154.116 C 283.892 153.983,283.600 153.570,283.600 152.986 C 283.600 151.649,283.195 150.800,282.557 150.800 C 282.201 150.800,282.000 150.354,282.000 149.563 C 282.000 148.662,281.783 148.268,281.200 148.116 C 280.760 148.001,280.386 147.703,280.369 147.453 C 280.282 146.163,279.983 145.377,279.422 144.967 C 279.080 144.717,278.800 144.245,278.800 143.918 C 278.800 143.591,278.440 142.998,278.000 142.600 C 277.560 142.202,277.200 141.454,277.200 140.938 C 277.200 140.267,276.973 140.000,276.400 140.000 C 275.733 140.000,275.600 139.733,275.600 138.400 C 275.600 137.244,275.433 136.800,275.000 136.800 C 274.670 136.800,274.377 136.440,274.350 136.000 C 274.322 135.560,274.255 135.020,274.200 134.800 C 274.145 134.580,274.078 134.220,274.050 134.000 C 274.022 133.780,273.730 133.600,273.400 133.600 C 273.026 133.600,272.800 133.222,272.800 132.596 C 272.800 132.044,272.441 131.285,272.002 130.909 C 271.563 130.533,271.093 129.635,270.957 128.913 C 270.822 128.191,270.481 127.600,270.200 127.600 C 269.919 127.600,269.574 126.987,269.434 126.239 C 269.293 125.490,268.913 124.776,268.589 124.651 C 268.265 124.527,268.000 124.103,268.000 123.709 C 268.000 123.315,267.640 122.768,267.200 122.493 C 266.690 122.174,266.400 121.560,266.400 120.797 C 266.400 119.867,266.222 119.600,265.600 119.600 C 264.948 119.600,264.800 119.333,264.800 118.163 C 264.800 117.062,264.613 116.676,264.000 116.516 C 263.403 116.360,263.200 115.970,263.200 114.980 C 263.200 114.005,262.988 113.587,262.400 113.400 C 261.805 113.211,261.600 112.795,261.600 111.773 C 261.600 110.667,261.445 110.400,260.800 110.400 C 260.148 110.400,260.000 110.133,260.000 108.963 C 260.000 107.862,259.813 107.476,259.200 107.316 C 258.487 107.130,258.131 106.003,258.363 104.670 C 258.394 104.489,258.266 104.435,258.079 104.551 C 257.891 104.667,257.423 104.049,257.038 103.177 C 256.653 102.305,256.172 101.694,255.969 101.819 C 255.766 101.945,255.600 101.480,255.600 100.786 C 255.600 99.862,255.387 99.469,254.800 99.316 C 254.194 99.157,254.000 98.770,254.000 97.716 C 254.000 96.662,253.806 96.275,253.200 96.116 C 252.599 95.959,252.400 95.570,252.400 94.553 C 252.400 93.467,252.242 93.200,251.600 93.200 C 250.955 93.200,250.800 92.933,250.800 91.827 C 250.800 90.805,250.595 90.389,250.000 90.200 C 249.405 90.011,249.200 89.595,249.200 88.573 C 249.200 87.328,248.896 86.995,247.900 87.153 C 247.735 87.179,247.600 86.576,247.600 85.814 C 247.600 84.838,247.364 84.302,246.800 84.000 C 246.360 83.765,246.000 83.308,246.000 82.986 C 246.000 82.664,245.640 82.040,245.200 81.600 C 244.760 81.160,244.400 80.461,244.400 80.047 C 244.400 79.630,244.043 79.200,243.600 79.084 C 242.987 78.924,242.800 78.538,242.800 77.437 C 242.800 76.426,242.622 76.000,242.200 76.000 C 241.674 76.000,241.347 74.699,241.564 73.466 C 241.596 73.282,241.258 73.036,240.811 72.919 C 240.365 72.802,239.978 72.368,239.950 71.953 C 239.923 71.539,239.855 71.020,239.800 70.800 C 239.745 70.580,239.678 70.220,239.650 70.000 C 239.623 69.780,239.330 69.600,239.000 69.600 C 238.626 69.600,238.400 69.222,238.400 68.596 C 238.400 68.044,238.040 67.284,237.600 66.907 C 237.160 66.530,236.800 65.917,236.800 65.544 C 236.800 64.446,236.354 63.600,235.775 63.600 C 235.474 63.600,235.118 62.969,234.968 62.168 C 234.820 61.381,234.452 60.641,234.149 60.525 C 233.847 60.409,233.600 60.017,233.600 59.653 C 233.600 59.290,233.240 58.768,232.800 58.493 C 232.290 58.174,232.000 57.560,232.000 56.797 C 232.000 55.867,231.822 55.600,231.200 55.600 C 230.530 55.600,230.400 55.333,230.400 53.953 C 230.400 52.504,230.304 52.332,229.600 52.516 C 228.898 52.699,228.800 52.528,228.800 51.125 C 228.800 49.862,228.632 49.481,228.000 49.316 C 227.434 49.168,227.200 48.770,227.200 47.957 C 227.200 47.240,226.899 46.619,226.400 46.307 C 225.910 46.001,225.600 45.374,225.600 44.691 C 225.600 44.068,225.335 43.473,225.000 43.345 C 224.670 43.218,224.400 42.774,224.400 42.357 C 224.400 41.877,224.119 41.600,223.632 41.600 C 223.112 41.600,222.782 41.230,222.612 40.455 C 222.474 39.825,221.919 38.926,221.380 38.458 C 220.841 37.989,220.400 37.424,220.400 37.203 C 220.400 36.981,220.220 36.800,220.000 36.800 C 219.780 36.800,219.240 36.440,218.800 36.000 C 218.360 35.560,217.640 35.200,217.200 35.200 C 216.667 35.200,216.400 34.933,216.400 34.400 C 216.400 33.832,216.133 33.600,215.480 33.600 C 214.974 33.600,214.318 33.375,214.021 33.100 C 213.586 32.696,213.544 32.707,213.803 33.162 C 214.018 33.538,213.971 33.629,213.662 33.438 C 213.408 33.281,213.200 32.893,213.200 32.576 C 213.200 32.171,212.726 32.000,211.600 32.000 C 210.418 32.000,210.000 31.837,210.000 31.376 C 210.000 31.033,209.820 30.864,209.600 31.000 C 209.380 31.136,209.200 31.077,209.200 30.870 C 209.200 30.380,191.191 30.266,190.449 30.751 M204.224 98.987 C 204.651 99.310,205.418 99.580,205.929 99.587 C 206.837 99.600,209.688 101.059,211.521 102.449 C 213.101 103.648,215.436 106.893,216.599 109.506 L 217.714 112.011 217.475 137.506 C 217.343 151.528,217.051 165.340,216.826 168.200 C 216.601 171.060,216.221 187.080,215.982 203.800 C 215.743 220.520,215.392 235.640,215.202 237.400 C 215.012 239.160,214.833 243.480,214.804 247.000 C 214.741 254.539,214.341 259.142,213.714 259.530 C 213.466 259.683,213.149 260.264,213.009 260.821 C 212.476 262.947,207.227 267.596,205.353 267.602 C 204.939 267.604,204.084 267.874,203.454 268.202 C 202.009 268.956,198.120 268.955,196.800 268.200 C 196.250 267.886,195.382 267.622,194.872 267.614 C 192.653 267.580,188.540 263.825,186.849 260.289 C 185.677 257.837,185.656 257.672,185.404 249.200 C 185.263 244.470,184.972 238.440,184.756 235.800 C 184.541 233.160,184.200 217.950,183.998 202.000 C 183.797 186.050,183.434 170.030,183.192 166.400 C 182.951 162.770,182.719 148.820,182.677 135.400 L 182.600 111.000 183.787 108.600 C 184.963 106.221,189.442 101.200,190.387 101.200 C 190.655 101.200,191.331 100.840,191.891 100.400 C 192.450 99.960,193.389 99.600,193.977 99.600 C 194.566 99.600,195.396 99.336,195.824 99.013 C 196.909 98.191,203.146 98.173,204.224 98.987 M203.824 294.187 C 204.251 294.510,205.016 294.780,205.525 294.787 C 208.807 294.832,217.600 302.214,217.600 304.924 C 217.600 305.192,217.960 306.084,218.400 306.904 C 219.986 309.864,219.574 317.248,217.597 321.308 C 215.729 325.143,211.319 330.000,209.705 330.000 C 209.525 330.000,208.933 330.315,208.389 330.700 C 207.845 331.085,206.410 331.650,205.200 331.955 C 200.876 333.045,194.032 332.413,191.611 330.700 C 191.067 330.315,190.415 330.000,190.162 330.000 C 189.408 330.000,183.849 324.314,183.122 322.800 C 180.834 318.034,180.800 317.894,180.800 313.218 C 180.800 309.626,180.956 308.347,181.554 307.044 C 181.969 306.140,182.517 304.950,182.770 304.400 C 183.696 302.394,184.263 301.675,186.981 299.062 C 188.504 297.598,190.054 296.400,190.426 296.400 C 190.798 296.400,191.322 296.135,191.591 295.811 C 191.860 295.486,192.737 295.111,193.540 294.977 C 194.343 294.842,195.540 294.482,196.200 294.175 C 197.834 293.417,202.815 293.424,203.824 294.187 " stroke="none" fill="#fbd474" fill-rule="evenodd"></path><path id="path2" d="M195.824 99.013 C 195.396 99.336,194.566 99.600,193.977 99.600 C 193.389 99.600,192.450 99.960,191.891 100.400 C 191.331 100.840,190.655 101.200,190.387 101.200 C 189.442 101.200,184.963 106.221,183.787 108.600 L 182.600 111.000 182.677 135.400 C 182.719 148.820,182.951 162.770,183.192 166.400 C 183.434 170.030,183.797 186.050,183.998 202.000 C 184.200 217.950,184.541 233.160,184.756 235.800 C 184.972 238.440,185.263 244.470,185.404 249.200 C 185.656 257.672,185.677 257.837,186.849 260.289 C 188.540 263.825,192.653 267.580,194.872 267.614 C 195.382 267.622,196.250 267.886,196.800 268.200 C 198.120 268.955,202.009 268.956,203.454 268.202 C 204.084 267.874,204.939 267.604,205.353 267.602 C 207.227 267.596,212.476 262.947,213.009 260.821 C 213.149 260.264,213.466 259.683,213.714 259.530 C 214.341 259.142,214.741 254.539,214.804 247.000 C 214.833 243.480,215.012 239.160,215.202 237.400 C 215.392 235.640,215.743 220.520,215.982 203.800 C 216.221 187.080,216.601 171.060,216.826 168.200 C 217.051 165.340,217.343 151.528,217.475 137.506 L 217.714 112.011 216.599 109.506 C 215.436 106.893,213.101 103.648,211.521 102.449 C 209.688 101.059,206.837 99.600,205.929 99.587 C 205.418 99.580,204.651 99.310,204.224 98.987 C 203.146 98.173,196.909 98.191,195.824 99.013 M204.670 99.758 C 209.804 100.860,214.475 105.220,216.406 110.712 C 217.332 113.347,217.463 125.326,216.793 146.000 C 216.589 152.270,216.153 171.350,215.823 188.400 C 215.493 205.450,215.115 220.750,214.984 222.400 C 214.853 224.050,214.593 232.510,214.406 241.200 C 214.073 256.701,214.048 257.044,213.086 259.322 C 208.320 270.600,192.256 270.886,187.221 259.783 L 186.060 257.221 185.637 241.111 C 185.404 232.250,185.031 218.430,184.809 210.400 C 184.586 202.370,184.220 186.800,183.995 175.800 C 183.770 164.800,183.397 148.780,183.166 140.200 C 182.533 116.639,182.683 112.452,184.275 109.200 C 188.161 101.264,195.612 97.814,204.670 99.758 M196.200 294.175 C 195.540 294.482,194.343 294.842,193.540 294.977 C 192.737 295.111,191.860 295.486,191.591 295.811 C 191.322 296.135,190.798 296.400,190.426 296.400 C 190.054 296.400,188.504 297.598,186.981 299.062 C 184.263 301.675,183.696 302.394,182.770 304.400 C 182.517 304.950,181.969 306.140,181.554 307.044 C 180.956 308.347,180.800 309.626,180.800 313.218 C 180.800 317.894,180.834 318.034,183.122 322.800 C 183.849 324.314,189.408 330.000,190.162 330.000 C 190.415 330.000,191.067 330.315,191.611 330.700 C 192.155 331.085,193.590 331.650,194.800 331.955 C 199.124 333.045,205.968 332.413,208.389 330.700 C 208.933 330.315,209.525 330.000,209.705 330.000 C 211.319 330.000,215.729 325.143,217.597 321.308 C 219.574 317.248,219.986 309.864,218.400 306.904 C 217.960 306.084,217.600 305.192,217.600 304.924 C 217.600 302.214,208.807 294.832,205.525 294.787 C 205.016 294.780,204.251 294.510,203.824 294.187 C 202.815 293.424,197.834 293.417,196.200 294.175 M204.279 295.001 C 216.886 297.631,222.919 312.504,215.841 323.506 C 209.461 333.424,195.278 334.867,186.681 326.474 C 184.854 324.690,182.803 321.614,182.798 320.650 C 182.796 320.402,182.499 319.660,182.137 319.000 C 180.984 316.897,180.920 310.900,182.018 307.897 C 185.711 297.802,194.182 292.895,204.279 295.001 " stroke="none" fill="#b69c64" fill-rule="evenodd"></path><path id="path3" d="M182.957 128.400 C 182.957 131.370,183.020 132.585,183.097 131.100 C 183.174 129.615,183.174 127.185,183.097 125.700 C 183.020 124.215,182.957 125.430,182.957 128.400 M216.953 133.800 C 216.953 136.440,217.018 137.468,217.097 136.084 C 217.175 134.701,217.174 132.541,217.095 131.284 C 217.016 130.028,216.952 131.160,216.953 133.800 M183.342 148.600 C 183.341 150.580,183.408 151.440,183.492 150.512 C 183.576 149.584,183.577 147.964,183.495 146.912 C 183.412 145.860,183.343 146.620,183.342 148.600 M216.542 150.600 C 216.541 152.580,216.608 153.440,216.692 152.512 C 216.776 151.584,216.777 149.964,216.695 148.912 C 216.612 147.860,216.543 148.620,216.542 150.600 M183.740 158.400 C 183.740 160.270,183.809 161.035,183.893 160.100 C 183.977 159.165,183.977 157.635,183.893 156.700 C 183.809 155.765,183.740 156.530,183.740 158.400 M216.144 161.200 C 216.144 163.290,216.212 164.145,216.294 163.100 C 216.376 162.055,216.376 160.345,216.294 159.300 C 216.212 158.255,216.144 159.110,216.144 161.200 M184.153 175.000 C 184.153 177.640,184.218 178.668,184.297 177.284 C 184.375 175.901,184.374 173.741,184.295 172.484 C 184.216 171.228,184.152 172.360,184.153 175.000 M215.760 181.400 C 215.761 184.700,215.822 185.997,215.898 184.282 C 215.973 182.567,215.972 179.867,215.897 178.282 C 215.821 176.697,215.759 178.100,215.760 181.400 M184.555 202.200 C 184.556 205.060,184.620 206.178,184.697 204.683 C 184.774 203.189,184.774 200.849,184.696 199.483 C 184.618 198.118,184.555 199.340,184.555 202.200 M215.350 206.200 C 215.351 208.620,215.416 209.558,215.496 208.285 C 215.576 207.012,215.575 205.032,215.494 203.885 C 215.414 202.738,215.349 203.780,215.350 206.200 M184.944 216.400 C 184.944 218.490,185.012 219.345,185.094 218.300 C 185.176 217.255,185.176 215.545,185.094 214.500 C 185.012 213.455,184.944 214.310,184.944 216.400 M214.942 218.600 C 214.941 220.580,215.008 221.440,215.092 220.512 C 215.176 219.584,215.177 217.964,215.095 216.912 C 215.012 215.860,214.943 216.620,214.942 218.600 M185.340 226.400 C 185.340 228.270,185.409 229.035,185.493 228.100 C 185.577 227.165,185.577 225.635,185.493 224.700 C 185.409 223.765,185.340 224.530,185.340 226.400 M214.544 229.200 C 214.544 231.290,214.612 232.145,214.694 231.100 C 214.776 230.055,214.776 228.345,214.694 227.300 C 214.612 226.255,214.544 227.110,214.544 229.200 M185.753 243.000 C 185.753 245.640,185.818 246.668,185.897 245.284 C 185.975 243.901,185.974 241.741,185.895 240.484 C 185.816 239.228,185.752 240.360,185.753 243.000 M214.157 248.800 C 214.157 251.770,214.220 252.985,214.297 251.500 C 214.374 250.015,214.374 247.585,214.297 246.100 C 214.220 244.615,214.157 245.830,214.157 248.800 M198.900 267.887 C 199.505 267.978,200.495 267.978,201.100 267.887 C 201.705 267.795,201.210 267.720,200.000 267.720 C 198.790 267.720,198.295 267.795,198.900 267.887 M199.107 294.690 C 199.826 294.779,200.906 294.777,201.507 294.686 C 202.108 294.595,201.520 294.522,200.200 294.524 C 198.880 294.526,198.388 294.601,199.107 294.690 M198.700 331.889 C 199.415 331.978,200.585 331.978,201.300 331.889 C 202.015 331.801,201.430 331.728,200.000 331.728 C 198.570 331.728,197.985 331.801,198.700 331.889 " stroke="none" fill="#a48c64" fill-rule="evenodd"></path><path id="path4" d="M196.106 99.797 C 193.157 100.332,189.199 102.512,187.480 104.547 C 185.178 107.273,183.635 110.360,183.355 112.800 C 183.218 113.991,183.318 113.871,184.028 112.000 C 186.111 106.509,188.541 103.638,193.025 101.370 C 196.249 99.739,204.367 99.651,207.000 101.218 C 209.926 102.959,211.631 104.329,212.796 105.872 C 213.431 106.712,214.221 107.705,214.552 108.078 C 214.884 108.450,215.283 109.440,215.438 110.278 C 215.593 111.115,215.989 112.212,216.317 112.716 C 216.977 113.731,216.876 123.403,216.017 141.200 C 215.779 146.150,215.407 161.720,215.192 175.800 C 214.977 189.880,214.618 205.450,214.394 210.400 C 214.170 215.350,213.835 227.770,213.649 238.000 C 213.343 254.837,213.238 256.801,212.542 258.717 C 211.675 261.100,208.840 264.633,207.251 265.308 C 206.673 265.554,205.890 266.013,205.511 266.329 C 204.456 267.209,195.446 267.146,194.457 266.252 C 194.061 265.893,193.571 265.598,193.369 265.595 C 192.964 265.590,190.302 263.103,188.932 261.451 C 188.455 260.876,187.939 259.818,187.786 259.102 C 187.633 258.386,187.303 257.547,187.054 257.239 C 186.736 256.846,186.515 250.293,186.317 235.439 C 186.161 223.757,185.839 210.960,185.601 207.000 C 185.363 203.040,185.005 187.830,184.805 173.200 C 184.499 150.776,184.150 138.705,183.458 126.600 C 183.396 125.500,183.313 128.470,183.276 133.200 C 183.238 137.930,183.383 145.670,183.598 150.400 C 183.813 155.130,184.168 169.890,184.387 183.200 C 184.605 196.510,184.977 212.530,185.213 218.800 C 185.449 225.070,185.784 236.320,185.957 243.800 C 186.271 257.341,186.276 257.410,187.327 259.692 C 191.403 268.543,204.164 270.530,210.404 263.286 C 213.826 259.313,213.872 259.024,214.361 238.400 C 214.598 228.390,214.974 213.540,215.196 205.400 C 215.419 197.260,215.782 181.960,216.003 171.400 C 216.225 160.840,216.613 143.619,216.867 133.130 L 217.328 114.060 216.429 111.398 C 213.376 102.360,205.805 98.038,196.106 99.797 M182.951 118.800 C 182.951 121.330,183.016 122.365,183.096 121.100 C 183.175 119.835,183.175 117.765,183.096 116.500 C 183.016 115.235,182.951 116.270,182.951 118.800 M195.000 295.362 C 191.183 296.306,184.470 301.128,184.412 302.969 C 184.405 303.171,184.157 303.621,183.861 303.969 C 182.413 305.663,181.068 311.626,181.416 314.800 C 182.147 321.453,185.720 326.653,191.791 329.899 L 194.600 331.400 200.000 331.400 C 205.371 331.400,205.415 331.393,208.200 330.000 C 212.116 328.043,217.192 322.589,217.202 320.329 C 217.204 320.038,217.510 319.260,217.882 318.600 C 218.399 317.684,218.559 316.406,218.559 313.200 C 218.559 309.994,218.399 308.716,217.882 307.800 C 217.510 307.140,217.204 306.362,217.202 306.071 C 217.198 305.151,215.245 302.162,213.420 300.284 C 208.873 295.606,201.733 293.698,195.000 295.362 M207.600 296.796 C 210.992 298.608,215.200 302.285,215.200 303.437 C 215.200 303.679,215.560 304.202,216.000 304.600 C 216.440 304.998,216.800 305.752,216.800 306.275 C 216.800 306.798,217.077 307.888,217.415 308.698 C 218.503 311.303,218.586 314.315,217.643 316.986 C 217.179 318.299,216.800 319.684,216.800 320.066 C 216.800 321.999,210.238 329.200,208.476 329.200 C 208.318 329.200,207.471 329.597,206.594 330.082 C 204.493 331.245,195.673 331.421,194.000 330.333 C 193.450 329.976,192.550 329.553,192.000 329.393 C 190.223 328.877,184.807 324.037,184.802 322.961 C 184.801 322.720,184.440 322.107,184.000 321.600 C 183.560 321.093,183.199 320.210,183.198 319.639 C 183.196 319.067,182.907 318.060,182.556 317.400 C 181.687 315.769,181.687 310.631,182.556 309.000 C 182.907 308.340,183.196 307.316,183.198 306.724 C 183.199 306.132,183.383 305.534,183.606 305.396 C 183.829 305.259,184.350 304.483,184.763 303.673 C 186.402 300.463,189.909 297.707,194.600 295.943 C 196.593 295.193,205.720 295.792,207.600 296.796 " stroke="none" fill="#94845c" fill-rule="evenodd"></path></g></svg>